<svg width="396" height="55" viewBox="0 0 396 55" fill="none" xmlns="http://www.w3.org/2000/svg">
<path d="M7.98589 53.4329V42.8334H33.2141C35.6098 42.8334 37.4611 42.3494 38.7679 41.3814C40.0747 40.4134 40.728 39.0099 40.728 37.1707V37.1344C40.728 35.9002 40.4135 34.8717 39.7843 34.0489C39.1793 33.2019 38.2839 32.5728 37.0981 32.1614C35.9365 31.7258 34.5087 31.508 32.8148 31.508H7.98589V22.2879H31.2902C33.6617 22.2879 35.4888 21.8281 36.7714 20.9085C38.054 19.9647 38.6953 18.6337 38.6953 16.9156V16.843C38.6953 15.1732 38.1145 13.8906 36.9529 12.9952C35.8155 12.0998 34.2183 11.6521 32.1614 11.6521H7.98589V1.05269H36.6625C40.3893 1.05269 43.5715 1.57298 46.2093 2.61356C48.847 3.62995 50.8677 5.10613 52.2713 7.0421C53.6749 8.95388 54.3767 11.2649 54.3767 13.9753V14.0479C54.3767 16.1049 53.9169 17.9441 52.9973 19.5654C52.1019 21.1626 50.8314 22.4936 49.1858 23.5584C47.5403 24.599 45.6043 25.3129 43.3779 25.7V25.9178C46.1367 26.2082 48.5203 26.91 50.5289 28.0232C52.5375 29.1364 54.0863 30.6005 55.1752 32.4155C56.2884 34.2062 56.845 36.2753 56.845 38.6227V38.6953C56.845 41.7686 56.0464 44.4064 54.4493 46.6086C52.8763 48.8107 50.6136 50.5047 47.6612 51.6905C44.7331 52.8521 41.212 53.4329 37.0981 53.4329H7.98589ZM0 53.4329V1.05269H15.7177V53.4329H0Z" fill="black"/>
<path d="M61.1661 53.4329V1.05269H77.0653V53.4329H61.1661Z" fill="black"/>
<path d="M115.326 54.4856C110.269 54.4856 105.707 53.8685 101.642 52.6343C97.576 51.4001 94.0912 49.6093 91.1873 47.262C88.3075 44.8904 86.0932 42.0227 84.5445 38.659C82.9957 35.271 82.2213 31.4233 82.2213 27.1157V27.0794C82.2213 21.4893 83.5644 16.6736 86.2505 12.6322C88.9367 8.56668 92.7481 5.44493 97.6849 3.26696C102.646 1.08898 108.49 0 115.218 0C120.759 0 125.708 0.798589 130.064 2.39577C134.444 3.96875 138.038 6.14672 140.845 8.92968C143.676 11.7126 145.516 14.8828 146.363 18.4401L146.471 18.8394H130.427L130.282 18.5853C129.12 16.601 127.293 15.028 124.801 13.8664C122.308 12.7048 119.259 12.124 115.653 12.124C112.265 12.124 109.277 12.6927 106.687 13.8301C104.098 14.9433 102.065 16.6131 100.589 18.8394C99.1369 21.0416 98.4109 23.7641 98.4109 27.0068V27.0794C98.4109 29.5236 98.8223 31.7016 99.645 33.6133C100.468 35.5009 101.642 37.1102 103.166 38.4412C104.691 39.748 106.518 40.7401 108.647 41.4177C110.801 42.0953 113.209 42.4341 115.871 42.4341C118.63 42.4341 121.05 42.1074 123.131 41.454C125.236 40.8006 126.966 39.8569 128.322 38.6227C129.701 37.3885 130.633 35.8881 131.117 34.1215V33.8311H115.871V24.4659H146.871V29.33C146.871 33.1051 146.133 36.5415 144.656 39.6391C143.204 42.7124 141.099 45.3623 138.34 47.5886C135.582 49.7908 132.254 51.4969 128.358 52.7069C124.486 53.8927 120.142 54.4856 115.326 54.4856Z" fill="black"/>
<path d="M152.208 53.4329V1.05269H200.995V12.9952H168.107V23.631H198.381V34.6297H168.107V53.4329H152.208Z" fill="black"/>
<path d="M237.259 54.4856C230.532 54.4856 224.676 53.3845 219.69 51.1823C214.705 48.9559 210.845 45.81 208.111 41.7444C205.401 37.6547 204.045 32.8268 204.045 27.2609V27.1883C204.045 21.6224 205.413 16.8067 208.147 12.7411C210.882 8.67558 214.729 5.54172 219.69 3.33955C224.676 1.11318 230.532 0 237.259 0C244.011 0 249.88 1.11318 254.865 3.33955C259.85 5.54172 263.71 8.67558 266.444 12.7411C269.179 16.8067 270.546 21.6224 270.546 27.1883V27.2609C270.546 32.8268 269.179 37.6426 266.444 41.7081C263.71 45.7737 259.85 48.9196 254.865 51.146C249.904 53.3724 244.035 54.4856 237.259 54.4856ZM237.259 42.2889C240.768 42.2889 243.793 41.6839 246.334 40.4739C248.875 39.264 250.847 37.5337 252.251 35.2831C253.655 33.0083 254.356 30.3343 254.356 27.2609V27.1883C254.356 24.115 253.655 21.453 252.251 19.2024C250.847 16.9519 248.863 15.2216 246.298 14.0116C243.757 12.7774 240.744 12.1603 237.259 12.1603C233.799 12.1603 230.786 12.7774 228.221 14.0116C225.68 15.2216 223.708 16.9519 222.304 19.2024C220.925 21.4288 220.235 24.0908 220.235 27.1883V27.2609C220.235 30.3343 220.925 33.0083 222.304 35.2831C223.708 37.5337 225.68 39.264 228.221 40.4739C230.786 41.6839 233.799 42.2889 237.259 42.2889Z" fill="black"/>
<path d="M307.428 54.4856C300.7 54.4856 294.844 53.3845 289.859 51.1823C284.874 48.9559 281.014 45.81 278.279 41.7444C275.569 37.6547 274.214 32.8268 274.214 27.2609V27.1883C274.214 21.6224 275.581 16.8067 278.316 12.7411C281.05 8.67558 284.898 5.54172 289.859 3.33955C294.844 1.11318 300.7 0 307.428 0C314.179 0 320.048 1.11318 325.033 3.33955C330.018 5.54172 333.878 8.67558 336.613 12.7411C339.347 16.8067 340.714 21.6224 340.714 27.1883V27.2609C340.714 32.8268 339.347 37.6426 336.613 41.7081C333.878 45.7737 330.018 48.9196 325.033 51.146C320.072 53.3724 314.204 54.4856 307.428 54.4856ZM307.428 42.2889C310.937 42.2889 313.962 41.6839 316.503 40.4739C319.044 39.264 321.016 37.5337 322.42 35.2831C323.823 33.0083 324.525 30.3343 324.525 27.2609V27.1883C324.525 24.115 323.823 21.453 322.42 19.2024C321.016 16.9519 319.032 15.2216 316.466 14.0116C313.925 12.7774 310.913 12.1603 307.428 12.1603C303.967 12.1603 300.954 12.7774 298.389 14.0116C295.848 15.2216 293.876 16.9519 292.472 19.2024C291.093 21.4288 290.403 24.0908 290.403 27.1883V27.2609C290.403 30.3343 291.093 33.0083 292.472 35.2831C293.876 37.5337 295.848 39.264 298.389 40.4739C300.954 41.6839 303.967 42.2889 307.428 42.2889Z" fill="black"/>
<path d="M360.1 53.4329V12.9952H340.099V1.05269H396V12.9952H375.999V53.4329H360.1Z" fill="black"/>
</svg>
