<svg width="400" height="100" viewBox="0 0 400 100" fill="none" xmlns="http://www.w3.org/2000/svg">
<g clip-path="url(#clip0_2569_169)">
<path d="M106.71 47.86C106.71 46.0043 105.208 44.5 103.355 44.5C101.502 44.5 100 46.0043 100 47.86V52.14C100 53.9957 101.502 55.5 103.355 55.5C105.208 55.5 106.71 53.9957 106.71 52.14V47.86Z" fill="white"/>
<path d="M119.128 40.86C119.128 39.0043 117.626 37.5 115.773 37.5C113.92 37.5 112.418 39.0043 112.418 40.86V59.14C112.418 60.9957 113.92 62.5 115.773 62.5C117.626 62.5 119.128 60.9957 119.128 59.14V40.86Z" fill="white"/>
<path d="M131.55 47.86C131.55 46.0043 130.048 44.5 128.195 44.5C126.342 44.5 124.84 46.0043 124.84 47.86V52.14C124.84 53.9957 126.342 55.5 128.195 55.5C130.048 55.5 131.55 53.9957 131.55 52.14V47.86Z" fill="white"/>
<path d="M143.98 47.86C143.98 46.0043 142.477 44.5 140.625 44.5C138.772 44.5 137.27 46.0043 137.27 47.86V52.14C137.27 53.9957 138.772 55.5 140.625 55.5C142.477 55.5 143.98 53.9957 143.98 52.14V47.86Z" fill="white"/>
<path d="M156.401 40.86C156.401 39.0043 154.899 37.5 153.046 37.5C151.193 37.5 149.691 39.0043 149.691 40.86V59.14C149.691 60.9957 151.193 62.5 153.046 62.5C154.899 62.5 156.401 60.9957 156.401 59.14V40.86Z" fill="white"/>
<path d="M168.819 37.36C168.819 35.5043 167.317 34 165.464 34C163.611 34 162.109 35.5043 162.109 37.36V62.64C162.109 64.4957 163.611 66 165.464 66C167.317 66 168.819 64.4957 168.819 62.64V37.36Z" fill="white"/>
<path d="M181.237 44.36C181.237 42.5043 179.735 41 177.882 41C176.029 41 174.527 42.5043 174.527 44.36V55.64C174.527 57.4957 176.029 59 177.882 59C179.735 59 181.237 57.4957 181.237 55.64V44.36Z" fill="white"/>
<path d="M193.671 30.36C193.671 28.5043 192.169 27 190.316 27C188.463 27 186.961 28.5043 186.961 30.36V69.64C186.961 71.4957 188.463 73 190.316 73C192.169 73 193.671 71.4957 193.671 69.64V30.36Z" fill="white"/>
<path d="M206.089 37.36C206.089 35.5043 204.587 34 202.734 34C200.881 34 199.379 35.5043 199.379 37.36V62.64C199.379 64.4957 200.881 66 202.734 66C204.587 66 206.089 64.4957 206.089 62.64V37.36Z" fill="white"/>
<path d="M218.511 33.86C218.511 32.0043 217.009 30.5 215.156 30.5C213.303 30.5 211.801 32.0043 211.801 33.86V66.14C211.801 67.9957 213.303 69.5 215.156 69.5C217.009 69.5 218.511 67.9957 218.511 66.14V33.86Z" fill="white"/>
<path d="M230.933 37.36C230.933 35.5043 229.431 34 227.578 34C225.725 34 224.223 35.5043 224.223 37.36V62.64C224.223 64.4957 225.725 66 227.578 66C229.431 66 230.933 64.4957 230.933 62.64V37.36Z" fill="white"/>
<path d="M243.351 23.36C243.351 21.5043 241.849 20 239.996 20C238.143 20 236.641 21.5043 236.641 23.36V76.64C236.641 78.4957 238.143 80 239.996 80C241.849 80 243.351 78.4957 243.351 76.64V23.36Z" fill="white"/>
<path d="M255.78 40.86C255.78 39.0043 254.278 37.5 252.425 37.5C250.572 37.5 249.07 39.0043 249.07 40.86V59.14C249.07 60.9957 250.572 62.5 252.425 62.5C254.278 62.5 255.78 60.9957 255.78 59.14V40.86Z" fill="white"/>
<path d="M268.198 33.86C268.198 32.0043 266.696 30.5 264.843 30.5C262.99 30.5 261.488 32.0043 261.488 33.86V66.14C261.488 67.9957 262.99 69.5 264.843 69.5C266.696 69.5 268.198 67.9957 268.198 66.14V33.86Z" fill="white"/>
<path d="M280.62 37.36C280.62 35.5043 279.118 34 277.265 34C275.412 34 273.91 35.5043 273.91 37.36V62.64C273.91 64.4957 275.412 66 277.265 66C279.118 66 280.62 64.4957 280.62 62.64V37.36Z" fill="white"/>
<path d="M293.042 47.86C293.042 46.0043 291.54 44.5 289.687 44.5C287.834 44.5 286.332 46.0043 286.332 47.86V52.14C286.332 53.9957 287.834 55.5 289.687 55.5C291.54 55.5 293.042 53.9957 293.042 52.14V47.86Z" fill="white"/>
<path d="M305.468 33.86C305.468 32.0043 303.966 30.5 302.113 30.5C300.26 30.5 298.758 32.0043 298.758 33.86V66.14C298.758 67.9957 300.26 69.5 302.113 69.5C303.966 69.5 305.468 67.9957 305.468 66.14V33.86Z" fill="white"/>
<path d="M317.89 26.86C317.89 25.0043 316.388 23.5 314.535 23.5C312.682 23.5 311.18 25.0043 311.18 26.86V73.14C311.18 74.9957 312.682 76.5 314.535 76.5C316.388 76.5 317.89 74.9957 317.89 73.14V26.86Z" fill="white"/>
<path d="M330.312 37.36C330.312 35.5043 328.809 34 326.957 34C325.104 34 323.602 35.5043 323.602 37.36V62.64C323.602 64.4957 325.104 66 326.957 66C328.809 66 330.312 64.4957 330.312 62.64V37.36Z" fill="white"/>
<path d="M342.73 47.86C342.73 46.0043 341.227 44.5 339.375 44.5C337.522 44.5 336.02 46.0043 336.02 47.86V52.14C336.02 53.9957 337.522 55.5 339.375 55.5C341.227 55.5 342.73 53.9957 342.73 52.14V47.86Z" fill="white"/>
<path d="M355.151 47.86C355.151 46.0043 353.649 44.5 351.796 44.5C349.944 44.5 348.441 46.0043 348.441 47.86V52.14C348.441 53.9957 349.944 55.5 351.796 55.5C353.649 55.5 355.151 53.9957 355.151 52.14V47.86Z" fill="white"/>
<path d="M367.577 26.86C367.577 25.0043 366.075 23.5 364.222 23.5C362.369 23.5 360.867 25.0043 360.867 26.86V73.14C360.867 74.9957 362.369 76.5 364.222 76.5C366.075 76.5 367.577 74.9957 367.577 73.14V26.86Z" fill="white"/>
<path d="M379.999 47.86C379.999 46.0043 378.497 44.5 376.644 44.5C374.791 44.5 373.289 46.0043 373.289 47.86V52.14C373.289 53.9957 374.791 55.5 376.644 55.5C378.497 55.5 379.999 53.9957 379.999 52.14V47.86Z" fill="white"/>
<path d="M50 20C55.9334 20 61.7336 21.7595 66.6671 25.0559C71.6006 28.3524 75.4458 33.0377 77.7164 38.5195C79.987 44.0013 80.5811 50.0333 79.4236 55.8527C78.266 61.6721 75.4088 67.0176 71.2132 71.2132C67.0176 75.4088 61.6721 78.266 55.8527 79.4236C50.0333 80.5811 44.0013 79.987 38.5195 77.7164C33.0377 75.4458 28.3524 71.6006 25.0559 66.6671C21.7595 61.7336 20 55.9334 20 50C20 42.0435 23.1607 34.4129 28.7868 28.7868C34.4129 23.1607 42.0435 20 50 20ZM63.73 63.2C63.9656 62.8084 64.048 62.3435 63.9612 61.8948C63.8744 61.4462 63.6246 61.0455 63.26 60.77C63.106 60.6576 62.9458 60.5541 62.78 60.46C60.9089 59.3455 58.9244 58.4337 56.86 57.74C53.1284 56.5183 49.2265 55.8972 45.3 55.9C43.97 55.97 42.63 56.02 41.3 56.13C38.9172 56.3414 36.5517 56.7156 34.22 57.25C34.0359 57.2885 33.8553 57.342 33.68 57.41C33.2795 57.5703 32.9485 57.8669 32.7454 58.2474C32.5423 58.628 32.4802 59.0681 32.57 59.49C32.6375 59.9165 32.8568 60.3042 33.1876 60.5817C33.5184 60.8591 33.9383 61.0077 34.37 61C34.6667 60.9906 34.9616 60.9503 35.25 60.88C38.0966 60.2392 40.9948 59.8544 43.91 59.73C46.1667 59.6373 48.427 59.7612 50.66 60.1C54.2779 60.6296 57.7587 61.8556 60.91 63.71C61.0712 63.8099 61.2381 63.9 61.41 63.98C61.8219 64.1611 62.2858 64.1859 62.7147 64.0497C63.1435 63.9135 63.5081 63.6256 63.74 63.24M67.41 55C67.7248 54.4724 67.8195 53.8421 67.6736 53.2452C67.5276 52.6483 67.1528 52.1328 66.63 51.81L66.28 51.6C63.9528 50.2243 61.477 49.1172 58.9 48.3C53.832 46.6751 48.5177 45.9541 43.2 46.17C40.7139 46.2529 38.2405 46.5608 35.81 47.09C34.81 47.31 33.81 47.57 32.87 47.86C32.4142 48.0038 32.0157 48.2884 31.7318 48.6729C31.4479 49.0574 31.2932 49.5221 31.29 50C31.2793 50.4693 31.4111 50.9309 31.6682 51.3237C31.9254 51.7165 32.2956 52.0221 32.73 52.2C33.2698 52.3939 33.8602 52.3939 34.4 52.2C37.7732 51.2232 41.2682 50.7316 44.78 50.74C47.4339 50.742 50.0818 50.9898 52.69 51.48C56.0186 52.0777 59.2447 53.1486 62.27 54.66C62.93 55 63.57 55.38 64.22 55.74C64.7422 56.0611 65.3698 56.1634 65.9669 56.0249C66.564 55.8864 67.0825 55.5182 67.41 55ZM67.76 46.51C68.1842 46.7681 68.6697 46.9083 69.1662 46.9161C69.6627 46.9239 70.1523 46.799 70.5844 46.5544C71.0165 46.3098 71.3756 45.9543 71.6244 45.5246C71.8733 45.0949 72.0029 44.6066 72 44.11C72 43.91 72 43.71 71.92 43.51C71.8336 43.119 71.6638 42.7513 71.4222 42.432C71.1806 42.1127 70.8728 41.8493 70.52 41.66C68.4838 40.4824 66.3368 39.5077 64.11 38.75C58.6704 36.9319 52.9846 35.9572 47.25 35.86C44.9146 35.7901 42.577 35.8602 40.25 36.07C38.0564 36.2544 35.878 36.5885 33.73 37.07C32.86 37.27 32 37.49 31.15 37.77C30.5947 37.9587 30.1149 38.3213 29.7816 38.804C29.4484 39.2867 29.2796 39.8638 29.3 40.45C29.314 41.0408 29.5152 41.6119 29.8746 42.0809C30.2341 42.55 30.7332 42.8928 31.3 43.06C31.8228 43.21 32.3772 43.21 32.9 43.06C33.77 42.83 34.65 42.59 35.53 42.4C37.9217 41.9024 40.3495 41.598 42.79 41.49C44.9217 41.371 47.0583 41.371 49.19 41.49C51.2388 41.613 53.2788 41.8534 55.3 42.21C58.2036 42.698 61.0488 43.4856 63.79 44.56C65.1667 45.1361 66.5031 45.8043 67.79 46.56" fill="white"/>
</g>
<defs>
<clipPath id="clip0_2569_169">
<rect width="400" height="100" fill="white"/>
</clipPath>
</defs>
</svg>
